<?xml version="1.0" encoding="utf-8"?>
<!-- Generator: Adobe Illustrator 21.0.0, SVG Export Plug-In . SVG Version: 6.00 Build 0)  -->
<svg version="1.1" id="圖層_1" xmlns="http://www.w3.org/2000/svg" xmlns:xlink="http://www.w3.org/1999/xlink" x="0px" y="0px"
	 viewBox="0 0 567 513" style="enable-background:new 0 0 567 513;" xml:space="preserve">
<style type="text/css">
	.st0{opacity:0.3;fill:#8EE0ED;}
	.st1{fill:#683C23;}
	.st2{fill:#5E9E5A;}
</style>
<path class="st0" d="M-2199.5-1519.8c0,0,321.4-45.8,534.8-2.9c213.4,43,512.9-18.3,655.1-6.9s323.2,26.4,438.2,6.3
	c115-20.1,286.3-21.7,286.3-21.7l24,1638h-1941C-2202,93-2199.5-1522.2-2199.5-1519.8z"/>
<g>
	<path class="st1" d="M41.5,106.1c0,0,208.8,342.4,227.7,355.6C288,474.9,545.8,108,545.8,108L41.5,106.1z"/>
	<path class="st2" d="M78.7,72.6c0,0,163.8-72.3,419.6,0c246.5,69.7-416.6,81.9-462.8,39.6C24.6,102.3,78.7,72.6,78.7,72.6z"/>
</g>
</svg>
