<?xml version="1.0" encoding="utf-8"?>
<!-- Generator: Adobe Illustrator 21.0.0, SVG Export Plug-In . SVG Version: 6.00 Build 0)  -->
<svg version="1.1" id="圖層_1" xmlns="http://www.w3.org/2000/svg" xmlns:xlink="http://www.w3.org/1999/xlink" x="0px" y="0px"
	 viewBox="0 0 2355 522" style="enable-background:new 0 0 2355 522;" xml:space="preserve">
<style type="text/css">
	.st0{opacity:0.69;fill:#77D3E8;}
	.st1{opacity:0.55;fill:#8EE0ED;}
</style>
<path class="st0" d="M2360.5,526.9L2360,18c0,0-66.5,6.9-224.8,30.9s-433.2-23.8-630.8-22.2c-235.6,1.9-420.5,126.6-873.6,22.9
	C347.6-15.3-105,53-105,53c0-1-0.8,206.7-1.9,473.9H2360.5z"/>
<path class="st1" d="M2428.3,526.9V31.9c0,0-65.8,5.7-222.6,25.8c-156.7,20.1-403.2,5.2-597.1-6.3c-193.8-11.5-601.9,49.9-892.6,6.9
	s-728.7,2.9-728.7,2.9c0-0.8-0.4,202.9-1,465.7H2428.3z"/>
</svg>
