<svg id="Capa_1" enable-background="new 0 0 512 512" height="512" viewBox="0 0 512 512" width="512" xmlns="http://www.w3.org/2000/svg"><path d="m445.495 206.121h-82.698c-45.799 0-87.34 26.86-106.134 68.625l-20.057 44.572c-15.029 33.397-48.867 54.469-85.706 52.994-35.304-1.414-62.872-31.232-62.872-66.565v-43.851c16.536-4.025 41.239-14.874 54.109-44.353 2.354-5.393-1.841-11.422-7.726-11.422h-38.07c-13.774 0-24.94 11.166-24.94 24.94 0-13.774-11.166-24.94-24.94-24.94h-38.069c-5.884 0-10.08 6.029-7.726 11.422 12.87 29.479 37.573 40.328 54.109 44.353l7.225 29.104c0 73.46 52.326 132 125.786 132h174.577c68.219 0 143.782-92.181 143.782-92.181 3.808-13.197 5.855-27.142 5.855-41.566v-16.626c0-36.731-29.775-66.506-66.505-66.506z" fill="#8bb3ea"/><path d="m329.11 358.736c0-11.313-9.207-20.518-20.525-20.518-6.029 0-11.728 2.661-15.637 7.299-23.292 27.641-57.386 43.494-93.543 43.494h-44.872c-45.803 0-83.096-37.262-83.132-83.064 0-.005 0-.009 0-.014v-.001c0-.009 0-.017 0-.026v-.001c0-.008 0-.017 0-.025 0-.001 0-.001 0-.002-.001-.009-.001-.017-.001-.025v-.002c0-.008 0-.017 0-.024 0-.001 0-.002 0-.003 0-.008 0-.016-.001-.024 0-.001 0-.001 0-.002 0-.008 0-.016 0-.024 0-.001 0-.003 0-.004 0-.008-.001-.015-.001-.023 0-.001 0-.003 0-.004 0-.007 0-.014 0-.022 0-.002-.001-.004-.001-.006 0-.007 0-.014 0-.021 0-.002 0-.004 0-.007-.001-.007-.001-.013-.001-.02 0-.003 0-.005 0-.007-.001-.007-.001-.013-.001-.02 0-.003 0-.005 0-.007 0-.006-.001-.013-.001-.019 0-.004 0-.006 0-.009-.001-.006-.001-.013-.001-.018 0-.003 0-.006 0-.009-.001-.006-.001-.012-.001-.017 0-.004-.001-.007-.001-.01 0-.006 0-.012-.001-.018 0-.003 0-.006 0-.01 0-.006-.001-.01-.001-.016 0-.004 0-.008 0-.011-.001-.006-.001-.01-.001-.016-.001-.004-.001-.007-.001-.012s-.001-.01-.001-.014c0-.005 0-.009-.001-.013 0-.005 0-.008 0-.013-.001-.005-.001-24.991-.001-24.995s-.001 24.973-.001 24.969c0-.006-.001-.011-.001-.016 0-.003-.001-.007-.001-.01 0-.006 0-.011-.001-.017 0-.004 0-.006-.001-.009 0-.006 0-.013-.001-.018 0-.003 0-.006 0-.008-.001-.007-.001-.012-.001-.019 0-.003 0-.005 0-.007-.001-.007-.001-.014-.001-.02 0-.002 0-.004 0-.006-.001-.007-.001-.014-.001-.021 0-.002 0-.004-.001-.005 0-.008-.001-.015-.001-.022-.001-.001-.001-.003-.001-.004 0-.008-.001-.016-.001-.024v-.002c-.001-.009-.001-.017-.001-.025v-24.735c-.412-8.819-7.69-18.541-16.608-18.541v43.983c0 70.621 59.551 114.621 133.011 114.621l141.337-6.497z" fill="#739ad6"/><path d="m382.704 330.819c-6.941 0-13.178 4.342-15.546 10.867-10.192 28.084-25.982 47.296-37.978 58.81-6.284 6.032-16.697 1.613-16.697-7.097v-34.662c0-3.619-4.49-5.272-6.822-2.505-26.276 31.183-65.105 49.407-106.257 49.407h-44.872c-55.095 0-99.758-44.664-99.758-99.758 0 73.46 59.551 133.011 133.011 133.011h174.577c68.203 0 125.755-45.675 143.782-108.071h-123.44z" fill="#dbeaff"/><circle cx="395.616" cy="280.94" fill="#4b3f4e" r="16.626"/><path d="m378.989 146.864v-51.314c0-12.393-10.046-22.439-22.439-22.439-18.339 0-28.934 20.806-18.148 35.638l30.182 41.5c3.277 4.505 10.405 2.187 10.405-3.385z" fill="#c3ddff"/><path d="m412.242 144.496v-31.624c0-8.186 6.636-14.822 14.822-14.822 11.642 0 18.74 12.806 12.569 22.678l-16.761 26.817c-3.063 4.901-10.63 2.731-10.63-3.049z" fill="#dbeaff"/></svg>